<svg xmlns="http://www.w3.org/2000/svg" viewBox="0 0 51.07 46.12"><title>Asset 25</title><g id="Layer_2" data-name="Layer 2"><g id="Layer_1-2" data-name="Layer 1"><rect x="12.41" y="6.44" width="20.9" height="1.18" style="fill:#ffffff"/><rect x="12.41" y="12.49" width="14.3" height="1.18" style="fill:#ffffff"/><rect x="12.41" y="18.54" width="12.81" height="1.18" style="fill:#ffffff"/><rect x="12.41" y="24.51" width="15.95" height="1.18" style="fill:#ffffff"/><rect x="12.41" y="30.56" width="11.63" height="1.18" style="fill:#ffffff"/><path d="M42.19,28.36,45.1,37l2.28-2.91,3.53.78-3.3-9.82a2.64,2.64,0,0,0,2-1.33,2.34,2.34,0,0,0,.23-2,2.63,2.63,0,0,0-.47-1,2.66,2.66,0,0,0,1.65-2.43,2.56,2.56,0,0,0-1.65-2.44,2.72,2.72,0,0,0,.16-3,2.77,2.77,0,0,0-2.67-1.34,4.39,4.39,0,0,0-.08-1,2.64,2.64,0,0,0-1.26-1.65,2.75,2.75,0,0,0-3,.16A2.74,2.74,0,0,0,40.7,7.46V4.79A4.84,4.84,0,0,0,36.06,0H4.71A5,5,0,0,0,0,5V24l8.41.16V41.33a4.81,4.81,0,0,0,4.79,4.79H44a4.2,4.2,0,0,0,4.16-4.4v-2h-7.3V29.15A3.27,3.27,0,0,0,42.19,28.36Zm7,5-2.27-.47-1.42,1.73-2.28-6.76a2.47,2.47,0,0,0,2.36-.16,2.77,2.77,0,0,0,1.18-1.33ZM8.41,22.94l-7.23-.16V5A3.65,3.65,0,0,1,4.79,1.34,3.66,3.66,0,0,1,8.41,5Zm4.71,21.92a3.65,3.65,0,0,1-3.61-3.61V5A4.76,4.76,0,0,0,7.86,1.34h28.2A3.66,3.66,0,0,1,39.68,5V7.62a2.58,2.58,0,0,0-1.89,1.57,2.73,2.73,0,0,0-3-.15,2.77,2.77,0,0,0-1.34,2.67A2.85,2.85,0,0,0,30.8,13,2.61,2.61,0,0,0,31,16a2.66,2.66,0,0,0-1.65,2.44A2.53,2.53,0,0,0,31,20.82a2.74,2.74,0,0,0-.16,3,2.93,2.93,0,0,0,2,1.33L29.38,35l3.54-.78,2.28,2.9,2.91-8.72a3.23,3.23,0,0,0,1.41.87V39.68H17.29l-.79.08.16.62a3.92,3.92,0,0,1,.15.95A3.7,3.7,0,0,1,13.12,44.86ZM33.63,26.32a2.9,2.9,0,0,0,1.18,1.41,2.54,2.54,0,0,0,2.27.16l-2.27,6.68-1.34-1.65-2.2.47ZM46.91,40.78v.86a3,3,0,0,1-3,3.22H16.26a4.72,4.72,0,0,0,1.65-3.61v-.47ZM40.23,28.05a1.5,1.5,0,0,1-1.5-1.49v-.4l-.39-.08-.78-.15c0,.08,0,.08-.08.15a.28.28,0,0,1-.08.16,1.52,1.52,0,0,1-2,.55,1.58,1.58,0,0,1-.55-2.12c0-.08.07-.08.15-.16l.16-.15-.86-.79a.28.28,0,0,1-.16.08c-.08,0-.08.08-.16.08a1.49,1.49,0,0,1-1.49-2.59.28.28,0,0,0,.16-.08c.07,0,.15-.08.23-.08l-.31-1.1a.29.29,0,0,0-.24.08h-.16a1.5,1.5,0,0,1,0-3h.32l.31-1.1h-.08c-.07,0-.07,0-.15-.08a.28.28,0,0,1-.16-.08,1.51,1.51,0,0,1-.55-2,1.59,1.59,0,0,1,2.12-.55c.08,0,.08.08.16.08s.08.08.16.16l.86-.79L35,12.41c0-.07-.08-.07-.08-.15a1.5,1.5,0,0,1,2.6-1.5.28.28,0,0,0,.08.16c0,.08.07.16.07.24l1.1-.32a.3.3,0,0,0-.07-.23v-.16a1.49,1.49,0,0,1,3,0v.63l1,.31.24-.47a.28.28,0,0,1,.08-.16,1.52,1.52,0,0,1,2-.55,1.73,1.73,0,0,1,.71.95,1.55,1.55,0,0,1-.16,1.18c0,.07-.08.07-.08.15s-.08.08-.08.16l-.08.08.87.78a.29.29,0,0,1,.16-.07c.07,0,.07-.08.15-.08A1.5,1.5,0,1,1,48,16a.28.28,0,0,0-.16.08c-.08,0-.16.08-.24.08l.32,1.1a.27.27,0,0,0,.23-.08h.16a1.49,1.49,0,0,1,0,3h-.16l-.7-.07v.62l-.16.48.47.23a.28.28,0,0,1,.16.08,1.68,1.68,0,0,1,.7.94,1.54,1.54,0,0,1-2.27,1.73c-.08,0-.08-.08-.16-.16L46,23.81l-.78.86.07.08c0,.08.08.08.08.16a1.49,1.49,0,1,1-2.59,1.49.28.28,0,0,0-.08-.16c0-.08-.08-.16-.08-.23l-1.1.31a.29.29,0,0,0,.08.24v.15C41.8,27.34,41.09,28.05,40.23,28.05Z" style="fill:#ffffff"/><path d="M45.49,18.39a5.27,5.27,0,1,0-5.26,5.26A5.27,5.27,0,0,0,45.49,18.39Zm-5.26,4.08a4.11,4.11,0,0,1-4.09-4.08,4.17,4.17,0,0,1,4.09-4.09,4.09,4.09,0,0,1,0,8.17Z" style="fill:#ffffff"/></g></g></svg>
