<?xml version="1.0" encoding="utf-8"?>
<svg viewBox="0 0 70 70" xmlns="http://www.w3.org/2000/svg">
  <title>Asset 19</title>
  <g id="Layer_2" data-name="Layer 2" transform="matrix(1, 0, 0, 1, 13.992678, 3.181302)">
    <g id="Layer_1-2" data-name="Layer 1">
      <path d="M21,11.11a9.44,9.44,0,1,0,9.44,9.44A9.45,9.45,0,0,0,21,11.11Zm.71,12L19.6,25.21l-2.13-2.14L15.4,21l2.13-2.13,2.07,2.07L24.51,16l2.14,2.14ZM39.9,17.9a2.7,2.7,0,0,1-.71-3l.39-1a2.68,2.68,0,0,0-1.75-3.62l-1-.26a2.69,2.69,0,0,1-1.94-2.45l-.07-1a2.6,2.6,0,0,0-3-2.52l-1,.19a2.55,2.55,0,0,1-2.78-1.35l-.52-.91A2.66,2.66,0,0,0,23.54,1l-.84.58a2.74,2.74,0,0,1-3.1,0L18.76,1a2.69,2.69,0,0,0-4,.91l-.51.9a2.69,2.69,0,0,1-2.85,1.36l-1-.19A2.73,2.73,0,0,0,7.25,6.46l-.06,1A2.72,2.72,0,0,1,5.25,10l-1,.26a2.67,2.67,0,0,0-1.74,3.62l.38,1a2.7,2.7,0,0,1-.71,3l-.77.71a2.63,2.63,0,0,0,0,4l.77.72a2.68,2.68,0,0,1,.71,3l-.45,1a2.68,2.68,0,0,0,1.75,3.62l1,.26a2.71,2.71,0,0,1,1.94,2.46l.07,1a2.68,2.68,0,0,0,3.1,2.53l1-.2a2.55,2.55,0,0,1,2.78,1.36l.52.9a2.67,2.67,0,0,0,3.88.91l.84-.58a2.71,2.71,0,0,1,3.1,0l.84.64a2.7,2.7,0,0,0,3.95-.9l.51-.91A2.7,2.7,0,0,1,30.59,37l1,.19a2.73,2.73,0,0,0,3.17-2.52l.07-1a2.69,2.69,0,0,1,1.94-2.45l1-.26a2.68,2.68,0,0,0,1.75-3.62l-.39-1a2.7,2.7,0,0,1,.71-3l.77-.71a2.64,2.64,0,0,0,0-4ZM21,33.67A13.06,13.06,0,1,1,34.08,20.61,13.06,13.06,0,0,1,21,33.67Zm-6.4,28.77V44.21a7.44,7.44,0,0,0,2.39.45,6.94,6.94,0,0,0,3.88-1.22l.07-.07.06.07a6.64,6.64,0,0,0,3.88,1.29,6.35,6.35,0,0,0,2.46-.52v18.3a.68.68,0,0,1-1.1.52l-5.11-4.14a.48.48,0,0,0-.58,0l-5,4.07A.6.6,0,0,1,14.62,62.44Z" style="fill:none;stroke:#ffffff;stroke-miterlimit:10;stroke-width:0.8920424580574036px"/>
    </g>
  </g>
</svg>