<?xml version="1.0" encoding="utf-8"?>
<svg width="30" height="30" viewBox="0 0 30 30" xmlns="http://www.w3.org/2000/svg">
  <title>Asset 9</title>
  <g id="Layer_2" data-name="Layer 2" transform="matrix(1, 0, 0, 1, 5.42, 0.513427)">
    <g id="Layer_1-2" data-name="Layer 1">
      <path d="M9.57,5.06a4.3,4.3,0,1,0,4.3,4.3A4.31,4.31,0,0,0,9.57,5.06Zm.32,5.44-1,1-1-1L7,9.56l1-1,.94.94L11.16,7.3l1,1Zm8.28-2.35a1.23,1.23,0,0,1-.33-1.38L18,6.32a1.21,1.21,0,0,0-.8-1.64l-.47-.12a1.23,1.23,0,0,1-.88-1.12l0-.47a1.18,1.18,0,0,0-1.38-1.15L14,1.91a1.17,1.17,0,0,1-1.27-.62L12.48.88A1.21,1.21,0,0,0,10.72.47l-.38.26a1.23,1.23,0,0,1-1.42,0L8.54.44A1.22,1.22,0,0,0,6.75.85l-.24.41a1.24,1.24,0,0,1-1.3.62l-.47-.09A1.24,1.24,0,0,0,3.3,2.94l0,.47a1.23,1.23,0,0,1-.88,1.12l-.47.12a1.22,1.22,0,0,0-.8,1.65l.18.44A1.22,1.22,0,0,1,1,8.12l-.36.32a1.21,1.21,0,0,0,0,1.83l.36.32A1.24,1.24,0,0,1,1.3,12l-.21.44a1.22,1.22,0,0,0,.8,1.65l.47.11a1.23,1.23,0,0,1,.88,1.12l0,.47a1.22,1.22,0,0,0,1.41,1.15l.48-.09a1.15,1.15,0,0,1,1.26.62l.24.41a1.21,1.21,0,0,0,1.76.42L8.81,18a1.25,1.25,0,0,1,1.41,0l.38.29a1.22,1.22,0,0,0,1.8-.41l.23-.41a1.24,1.24,0,0,1,1.3-.62l.47.09a1.24,1.24,0,0,0,1.44-1.15l0-.47a1.23,1.23,0,0,1,.88-1.12l.47-.11a1.22,1.22,0,0,0,.8-1.65L17.84,12a1.24,1.24,0,0,1,.33-1.39l.35-.32a1.21,1.21,0,0,0,0-1.83Zm-8.6,7.18a5.95,5.95,0,1,1,5.95-5.94A5.95,5.95,0,0,1,9.57,15.33ZM6.66,28.43v-8.3a3.3,3.3,0,0,0,1.09.21,3.17,3.17,0,0,0,1.76-.56l0,0,0,0a3.06,3.06,0,0,0,1.77.59,2.93,2.93,0,0,0,1.12-.24v8.33a.31.31,0,0,1-.5.24L9.63,26.81a.22.22,0,0,0-.27,0L7.1,28.67A.27.27,0,0,1,6.66,28.43Z" style="fill:none;stroke:#050505;stroke-miterlimit:10;stroke-width:0.40615072598192725px"/>
    </g>
  </g>
</svg>