<?xml version="1.0" encoding="UTF-8"?>
<svg width="25px" height="22px" viewBox="0 0 25 22" version="1.1" xmlns="http://www.w3.org/2000/svg" xmlns:xlink="http://www.w3.org/1999/xlink">
    <!-- Generator: Sketch 48.1 (47250) - http://www.bohemiancoding.com/sketch -->
    <title>Page 1</title>
    <desc>Created with Sketch.</desc>
    <defs></defs>
    <g id="Description-V4---2-(v5)" stroke="none" stroke-width="1" fill="none" fill-rule="evenodd" transform="translate(-888.000000, -813.000000)">
        <g id="Page-1" transform="translate(888.000000, 813.000000)" fill="#FFFFFF">
            <g id="Group-3" transform="translate(0.000000, 0.034905)">
                <path d="M23.0402297,9.96320471 C23.0402297,10.3809822 22.7003174,10.7208475 22.2825399,10.7208475 L20.8308466,10.7208475 C20.533282,10.7208475 20.2919612,10.9621212 20.2919612,11.2597329 C20.2919612,11.5573446 20.533282,11.7986183 20.8308466,11.7986183 L21.7437487,11.7986183 C22.1614791,11.7986183 22.5013443,12.1385306 22.5013443,12.556261 L22.5013443,12.8619749 C22.5013443,13.2797524 22.161432,13.6196176 21.7436545,13.6196176 L20.1841841,13.6196176 C19.8866195,13.6196176 19.6452987,13.8608913 19.6452987,14.1585502 C19.6452987,14.4561148 19.8866195,14.6973885 20.1841841,14.6973885 L21.204769,14.6973885 C21.6225466,14.6973885 21.9624589,15.0372537 21.9624589,15.4550312 L21.9624589,15.7607451 C21.9624589,16.1785226 21.6225466,16.5183878 21.204769,16.5183878 L19.6183544,16.5183878 C19.3208369,16.5183878 19.0795161,16.7596615 19.0795161,17.0572732 C19.0795161,17.3548849 19.3208369,17.5961586 19.6183544,17.5961586 L20.6659307,17.5961586 C21.0837082,17.5961586 21.4236206,17.9360239 21.4236206,18.3538014 L21.4236206,18.6595152 C21.4236206,19.0772927 21.0837082,19.417158 20.6659307,19.417158 L11.7105878,19.417158 C10.7368256,19.417158 9.79523638,19.0659404 9.05940342,18.4282279 C8.75284168,18.1624594 8.36050106,18.016103 7.95473542,18.016103 L5.9276972,18.016103 L5.9276972,10.300856 L7.95473542,10.300856 C8.36050106,10.300856 8.75284168,10.1544996 9.05935631,9.88877822 L9.25620965,9.71816258 C9.35206907,9.63506871 9.51882208,9.50529342 9.71181278,9.3550744 C10.2929988,8.90267444 11.1712784,8.21908133 12.0218129,7.35964388 C12.9736711,6.39770514 13.6642358,5.18964086 14.0189393,3.86607421 L14.7161458,1.26373812 C14.7495906,1.13886179 14.8781412,1.06434109 15.0033002,1.09792722 C16.0263817,1.37203336 16.6358309,2.42747625 16.3616777,3.45069907 L15.3678015,7.16001132 C15.30859,7.38098261 15.305434,7.60713548 15.3539996,7.82203017 L14.7235885,7.82203017 C14.4260239,7.82203017 14.1847031,8.06330387 14.1847031,8.36091559 C14.1847031,8.65852731 14.4260239,8.89980101 14.7235885,8.89980101 L22.282587,8.89980101 C22.7003645,8.89980101 23.0402297,9.23966624 23.0402297,9.65744376 L23.0402297,9.96320471 Z M4.84987926,19.9783242 L1.07772844,19.9783242 L1.07772844,8.33863475 L4.84983215,8.33863475 L4.84983215,19.9783242 L4.84987926,19.9783242 Z M22.282587,7.82203017 L16.7027205,7.82203017 C16.5720973,7.82203017 16.4954098,7.74746238 16.4613526,7.70299491 C16.4272012,7.65852744 16.3750085,7.5651646 16.4088301,7.43906353 L17.4027063,3.72975127 C17.8306115,2.13254954 16.8794128,0.484992165 15.2821639,0.0570869963 C14.5833087,-0.13029816 13.862361,0.286113299 13.6750701,0.984968548 L12.9778164,3.58725753 C12.6715373,4.7302693 12.0760783,5.77266401 11.2556441,6.60171849 C10.4542405,7.4116011 9.60907597,8.06942757 9.04974682,8.50472828 C8.83626529,8.67086892 8.66758096,8.80215158 8.55024149,8.90380497 L8.35334105,9.07446772 C8.24264343,9.17037425 8.10104469,9.22317937 7.9545941,9.22317937 L5.92750877,9.22317937 L5.92750877,7.79979644 C5.92750877,7.50218472 5.68618797,7.26091102 5.38862336,7.26091102 L0.538890128,7.26091102 C0.241325514,7.26091102 4.71053686e-06,7.50218472 4.71053686e-06,7.79979644 L4.71053686e-06,20.5172097 C4.71053686e-06,20.8148214 0.241325514,21.0560951 0.538890128,21.0560951 L5.38876467,21.0560951 C5.68632929,21.0560951 5.92765009,20.8148214 5.92765009,20.5172097 L5.92765009,19.0938738 L7.95473542,19.0938738 C8.10123312,19.0938738 8.24292606,19.146679 8.35357658,19.2426326 C9.28532077,20.050207 10.4776048,20.4949288 11.7106349,20.4949288 L20.6659778,20.4949288 C21.6780367,20.4949288 22.5014385,19.6716212 22.5014385,18.6595152 L22.5014385,18.3538014 C22.5014385,17.9688092 22.382309,17.6111853 22.1790494,17.3157875 C22.6960308,16.9908075 23.0403239,16.4152271 23.0403239,15.7607451 L23.0403239,15.4550312 C23.0403239,15.070039 22.9211945,14.7124151 22.7179348,14.4170173 C23.2349162,14.0920374 23.5792094,13.5164569 23.5792094,12.8619749 L23.5792094,12.556261 C23.5792094,12.1713631 23.4600799,11.813692 23.2568202,11.5182471 C23.7738016,11.1932672 24.1180948,10.6177338 24.1180948,9.96320471 L24.1180948,9.65744376 C24.1179535,8.64543202 23.2945987,7.82203017 22.282587,7.82203017 Z" id="Fill-1"></path>
            </g>
            <path d="M3.37132181,19.1107423 C3.66888643,19.1107423 3.91020723,18.8694686 3.91020723,18.5718569 L3.91020723,18.0329714 C3.91020723,17.7353597 3.66888643,17.494086 3.37132181,17.494086 C3.0737572,17.494086 2.8324364,17.7353597 2.8324364,18.0329714 L2.8324364,18.5718569 C2.8324835,18.8695157 3.0737572,19.1107423 3.37132181,19.1107423" id="Fill-4"></path>
            <path d="M9.50100212,11.0461571 C9.20343751,11.0461571 8.9621167,11.2874308 8.9621167,11.5850425 L8.9621167,14.1503538 C8.9621167,14.4479655 9.20343751,14.6892392 9.50100212,14.6892392 C9.79856673,14.6892392 10.0398875,14.4479655 10.0398875,14.1503538 L10.0398875,11.5850425 C10.0398875,11.2873837 9.79866094,11.0461571 9.50100212,11.0461571" id="Fill-6"></path>
            <path d="M9.50100212,15.6858522 C9.20343751,15.6858522 8.9621167,15.9271259 8.9621167,16.2247376 L8.9621167,16.7577349 C8.9621167,17.0553466 9.20343751,17.2966203 9.50100212,17.2966203 C9.79856673,17.2966203 10.0398875,17.0553466 10.0398875,16.7577349 L10.0398875,16.2247376 C10.0398875,15.9271259 9.79866094,15.6858522 9.50100212,15.6858522" id="Fill-8"></path>
        </g>
    </g>
</svg>