<svg id="Layer_1" enable-background="new 0 0 512.003 512.003" height="512" viewBox="0 0 512.003 512.003" width="512" style="fill: white;" xmlns="http://www.w3.org/2000/svg"><path d="m330.002 492.002c0 11.046-8.954 20-20 20h-240c-11.046 0-20-8.954-20-20v-301.728l-18.447 13.054c-9.016 6.381-21.499 4.244-27.878-4.773-6.381-9.017-4.244-21.498 4.773-27.878l236-167c6.923-4.899 16.183-4.899 23.105 0l236 167c9.017 6.38 11.154 18.862 4.773 27.878-3.897 5.508-10.073 8.448-16.343 8.449-3.995 0-8.027-1.192-11.536-3.676l-18.447-13.054v75.728c0 11.046-8.954 20-20 20s-20-8.954-20-20v-103.5c0-.174.022-.342.026-.515l-166.026-117.484-166.026 117.484c.004.173.026.341.026.515v309.5h220c11.046 0 20 8.954 20 20zm85-20c-11.046 0-20 8.954-20 20s8.954 20 20 20 20-8.954 20-20-8.955-20-20-20zm89.257-123.806c-53.73-41.67-128.783-41.67-182.514 0-8.729 6.769-10.316 19.333-3.547 28.061s19.333 10.316 28.061 3.547c39.297-30.477 94.189-30.477 133.486 0 3.646 2.828 7.96 4.197 12.243 4.197 5.97 0 11.877-2.662 15.818-7.744 6.769-8.729 5.181-21.292-3.547-28.061zm-149.147 68.403c-7.947 7.671-8.171 20.333-.5 28.28 7.671 7.946 20.332 8.171 28.28.5 17.165-16.569 43.055-16.569 60.22 0 3.882 3.747 8.887 5.61 13.888 5.61 5.237 0 10.468-2.045 14.393-6.11 7.671-7.948 7.447-20.609-.5-28.28-32.463-31.333-83.32-31.333-115.781 0z"/></svg>
